<mxfile host="app.diagrams.net" modified="2022-06-23T21:01:16.799Z" agent="5.0 (Macintosh)" etag="Os89vLRnhj_ua0oWY09o" version="20.0.1" type="github">
  <diagram id="prtHgNgQTEPvFCAcTncT" name="Page-1">
    <mxGraphModel dx="2037" dy="1099" grid="0" gridSize="10" guides="1" tooltips="1" connect="1" arrows="1" fold="1" page="1" pageScale="1" pageWidth="827" pageHeight="1169" math="0" shadow="0">
      <root>
        <mxCell id="0" />
        <mxCell id="1" parent="0" />
        <mxCell id="WFpbNeZ7fb5WtR8EpIsN-1" value="" style="whiteSpace=wrap;html=1;aspect=fixed;" parent="1" vertex="1">
          <mxGeometry x="102" y="181" width="195" height="195" as="geometry" />
        </mxCell>
        <mxCell id="WFpbNeZ7fb5WtR8EpIsN-3" value="" style="outlineConnect=0;dashed=0;verticalLabelPosition=bottom;verticalAlign=top;align=center;html=1;shape=mxgraph.aws3.waf;fillColor=#759C3E;gradientColor=none;" parent="1" vertex="1">
          <mxGeometry x="125" y="186" width="57" height="56" as="geometry" />
        </mxCell>
        <mxCell id="WFpbNeZ7fb5WtR8EpIsN-4" value="&lt;b&gt;WAF&lt;/b&gt;" style="text;html=1;strokeColor=none;fillColor=none;align=center;verticalAlign=middle;whiteSpace=wrap;rounded=0;" parent="1" vertex="1">
          <mxGeometry x="123.5" y="235" width="60" height="30" as="geometry" />
        </mxCell>
        <mxCell id="WFpbNeZ7fb5WtR8EpIsN-5" value="" style="outlineConnect=0;dashed=0;verticalLabelPosition=bottom;verticalAlign=top;align=center;html=1;shape=mxgraph.aws3.s3;fillColor=#E05243;gradientColor=none;" parent="1" vertex="1">
          <mxGeometry x="120" y="263" width="33" height="40" as="geometry" />
        </mxCell>
        <mxCell id="WFpbNeZ7fb5WtR8EpIsN-6" value="&lt;b&gt;s3&lt;/b&gt;" style="text;html=1;strokeColor=none;fillColor=none;align=center;verticalAlign=middle;whiteSpace=wrap;rounded=0;" parent="1" vertex="1">
          <mxGeometry x="106.5" y="299" width="60" height="30" as="geometry" />
        </mxCell>
        <mxCell id="WFpbNeZ7fb5WtR8EpIsN-7" value="" style="aspect=fixed;html=1;points=[];align=center;image;fontSize=12;image=img/lib/azure2/app_services/CDN_Profiles.svg;" parent="1" vertex="1">
          <mxGeometry x="209" y="195" width="68" height="40" as="geometry" />
        </mxCell>
        <mxCell id="WFpbNeZ7fb5WtR8EpIsN-11" value="" style="fillColor=#28A8E0;verticalLabelPosition=bottom;sketch=0;html=1;strokeColor=#ffffff;verticalAlign=top;align=center;points=[[0.145,0.145,0],[0.5,0,0],[0.855,0.145,0],[1,0.5,0],[0.855,0.855,0],[0.5,1,0],[0.145,0.855,0],[0,0.5,0]];pointerEvents=1;shape=mxgraph.cisco_safe.compositeIcon;bgIcon=ellipse;resIcon=mxgraph.cisco_safe.capability.anti_virus;" parent="1" vertex="1">
          <mxGeometry x="149" y="320.5" width="43" height="43" as="geometry" />
        </mxCell>
        <mxCell id="WFpbNeZ7fb5WtR8EpIsN-12" value="" style="outlineConnect=0;dashed=0;verticalLabelPosition=bottom;verticalAlign=top;align=center;html=1;shape=mxgraph.aws3.iam;fillColor=#759C3E;gradientColor=none;" parent="1" vertex="1">
          <mxGeometry x="182" y="242" width="42" height="81" as="geometry" />
        </mxCell>
        <mxCell id="WFpbNeZ7fb5WtR8EpIsN-13" value="" style="sketch=0;points=[[0,0,0],[0.25,0,0],[0.5,0,0],[0.75,0,0],[1,0,0],[0,1,0],[0.25,1,0],[0.5,1,0],[0.75,1,0],[1,1,0],[0,0.25,0],[0,0.5,0],[0,0.75,0],[1,0.25,0],[1,0.5,0],[1,0.75,0]];outlineConnect=0;fontColor=#232F3E;gradientColor=#F54749;gradientDirection=north;fillColor=#C7131F;strokeColor=#ffffff;dashed=0;verticalLabelPosition=bottom;verticalAlign=top;align=center;html=1;fontSize=12;fontStyle=0;aspect=fixed;shape=mxgraph.aws4.resourceIcon;resIcon=mxgraph.aws4.audit_manager;" parent="1" vertex="1">
          <mxGeometry x="237" y="317" width="50" height="50" as="geometry" />
        </mxCell>
        <mxCell id="WFpbNeZ7fb5WtR8EpIsN-16" value="" style="aspect=fixed;html=1;points=[];align=center;image;fontSize=12;image=img/lib/azure2/general/Cost_Management_and_Billing.svg;" parent="1" vertex="1">
          <mxGeometry x="389.25" y="44" width="81" height="81" as="geometry" />
        </mxCell>
        <mxCell id="WFpbNeZ7fb5WtR8EpIsN-22" value="&lt;font style=&quot;font-size: 24px;&quot; color=&quot;#FF0080&quot;&gt;&lt;b&gt;Billing Account&lt;/b&gt;&lt;/font&gt;" style="text;html=1;strokeColor=none;fillColor=none;align=center;verticalAlign=middle;whiteSpace=wrap;rounded=0;" parent="1" vertex="1">
          <mxGeometry x="324.25" y="10" width="236" height="30" as="geometry" />
        </mxCell>
        <mxCell id="WFpbNeZ7fb5WtR8EpIsN-23" value="" style="whiteSpace=wrap;html=1;aspect=fixed;" parent="1" vertex="1">
          <mxGeometry x="566" y="181" width="197" height="197" as="geometry" />
        </mxCell>
        <mxCell id="WFpbNeZ7fb5WtR8EpIsN-24" value="" style="shape=image;html=1;verticalAlign=top;verticalLabelPosition=bottom;labelBackgroundColor=#ffffff;imageAspect=0;aspect=fixed;image=https://cdn1.iconfinder.com/data/icons/unicons-line-vol-2/24/data-sharing-128.png" parent="1" vertex="1">
          <mxGeometry x="562.5" y="99" width="82" height="82" as="geometry" />
        </mxCell>
        <mxCell id="WFpbNeZ7fb5WtR8EpIsN-25" value="&lt;font style=&quot;font-size: 15px;&quot; color=&quot;#9933FF&quot;&gt;&lt;b&gt;Security and Compliance Account&lt;/b&gt;&lt;/font&gt;" style="text;html=1;strokeColor=none;fillColor=none;align=center;verticalAlign=middle;whiteSpace=wrap;rounded=0;" parent="1" vertex="1">
          <mxGeometry x="148.5" y="131" width="128.5" height="30" as="geometry" />
        </mxCell>
        <mxCell id="WFpbNeZ7fb5WtR8EpIsN-26" value="&lt;font style=&quot;font-size: 16px;&quot; color=&quot;#994C00&quot;&gt;Shared Services Account&lt;/font&gt;" style="text;html=1;strokeColor=none;fillColor=none;align=center;verticalAlign=middle;whiteSpace=wrap;rounded=0;fontStyle=1" parent="1" vertex="1">
          <mxGeometry x="644.5" y="125" width="128.5" height="30" as="geometry" />
        </mxCell>
        <mxCell id="WFpbNeZ7fb5WtR8EpIsN-28" value="" style="pointerEvents=1;shadow=0;dashed=0;html=1;strokeColor=none;fillColor=#EF8F21;labelPosition=center;verticalLabelPosition=bottom;verticalAlign=top;align=center;outlineConnect=0;shape=mxgraph.veeam.production_site;" parent="1" vertex="1">
          <mxGeometry x="480" y="607.6" width="33.75" height="30.4" as="geometry" />
        </mxCell>
        <mxCell id="WFpbNeZ7fb5WtR8EpIsN-29" value="" style="points=[[0.5,0,0],[0.765,0.48,0],[0.99,0.98,0],[0.5,1,0],[0.01,0.98,0],[0.235,0.48,0]];verticalLabelPosition=bottom;sketch=0;html=1;verticalAlign=top;aspect=fixed;align=center;pointerEvents=1;shape=mxgraph.cisco19.ldap;fillColor=#005073;strokeColor=none;" parent="1" vertex="1">
          <mxGeometry x="615" y="192.5" width="50" height="42.5" as="geometry" />
        </mxCell>
        <mxCell id="WFpbNeZ7fb5WtR8EpIsN-30" value="&lt;b&gt;LDAP&lt;/b&gt;" style="text;html=1;strokeColor=none;fillColor=none;align=center;verticalAlign=middle;whiteSpace=wrap;rounded=0;" parent="1" vertex="1">
          <mxGeometry x="610" y="230" width="60" height="30" as="geometry" />
        </mxCell>
        <mxCell id="WFpbNeZ7fb5WtR8EpIsN-31" value="" style="image;image=img/lib/atlassian/Bitbucket_Logo.svg;" parent="1" vertex="1">
          <mxGeometry x="575" y="258" width="57" height="50" as="geometry" />
        </mxCell>
        <mxCell id="WFpbNeZ7fb5WtR8EpIsN-33" value="" style="outlineConnect=0;dashed=0;verticalLabelPosition=bottom;verticalAlign=top;align=center;html=1;shape=mxgraph.aws3.cloudformation;fillColor=#759C3E;gradientColor=none;" parent="1" vertex="1">
          <mxGeometry x="694.5" y="192.5" width="40" height="49" as="geometry" />
        </mxCell>
        <mxCell id="WFpbNeZ7fb5WtR8EpIsN-34" value="Cloud Formation" style="text;html=1;strokeColor=none;fillColor=none;align=center;verticalAlign=middle;whiteSpace=wrap;rounded=0;fontStyle=1" parent="1" vertex="1">
          <mxGeometry x="684.5" y="241.5" width="60" height="30" as="geometry" />
        </mxCell>
        <mxCell id="WFpbNeZ7fb5WtR8EpIsN-35" value="&lt;b&gt;Bit Bucket&lt;/b&gt;" style="text;html=1;strokeColor=none;fillColor=none;align=center;verticalAlign=middle;whiteSpace=wrap;rounded=0;" parent="1" vertex="1">
          <mxGeometry x="571.25" y="303" width="64.5" height="30" as="geometry" />
        </mxCell>
        <mxCell id="WFpbNeZ7fb5WtR8EpIsN-36" value="" style="sketch=0;points=[[0,0,0],[0.25,0,0],[0.5,0,0],[0.75,0,0],[1,0,0],[0,1,0],[0.25,1,0],[0.5,1,0],[0.75,1,0],[1,1,0],[0,0.25,0],[0,0.5,0],[0,0.75,0],[1,0.25,0],[1,0.5,0],[1,0.75,0]];points=[[0,0,0],[0.25,0,0],[0.5,0,0],[0.75,0,0],[1,0,0],[0,1,0],[0.25,1,0],[0.5,1,0],[0.75,1,0],[1,1,0],[0,0.25,0],[0,0.5,0],[0,0.75,0],[1,0.25,0],[1,0.5,0],[1,0.75,0]];outlineConnect=0;fontColor=#232F3E;gradientColor=#F34482;gradientDirection=north;fillColor=#BC1356;strokeColor=#ffffff;dashed=0;verticalLabelPosition=bottom;verticalAlign=top;align=center;html=1;fontSize=12;fontStyle=0;aspect=fixed;shape=mxgraph.aws4.resourceIcon;resIcon=mxgraph.aws4.managed_service_for_prometheus;" parent="1" vertex="1">
          <mxGeometry x="646" y="274" width="37" height="37" as="geometry" />
        </mxCell>
        <mxCell id="WFpbNeZ7fb5WtR8EpIsN-37" value="Amazon Elasticsearch Service" style="sketch=0;outlineConnect=0;fontColor=#232F3E;gradientColor=none;strokeColor=#ffffff;fillColor=#232F3E;dashed=0;verticalLabelPosition=middle;verticalAlign=bottom;align=center;html=1;whiteSpace=wrap;fontSize=10;fontStyle=1;spacing=3;shape=mxgraph.aws4.productIcon;prIcon=mxgraph.aws4.elasticsearch_service;" parent="1" vertex="1">
          <mxGeometry x="698.5" y="284" width="46" height="89" as="geometry" />
        </mxCell>
        <mxCell id="WFpbNeZ7fb5WtR8EpIsN-38" value="" style="outlineConnect=0;dashed=0;verticalLabelPosition=bottom;verticalAlign=top;align=center;html=1;shape=mxgraph.aws3.automation;fillColor=#759C3E;gradientColor=none;" parent="1" vertex="1">
          <mxGeometry x="598" y="331" width="34" height="39" as="geometry" />
        </mxCell>
        <mxCell id="WFpbNeZ7fb5WtR8EpIsN-39" value="" style="image;html=1;image=img/lib/clip_art/people/Security_Man_128x128.png" parent="1" vertex="1">
          <mxGeometry x="102" y="106" width="65" height="72" as="geometry" />
        </mxCell>
        <mxCell id="WFpbNeZ7fb5WtR8EpIsN-40" value="" style="rounded=0;whiteSpace=wrap;html=1;" parent="1" vertex="1">
          <mxGeometry x="470.25" y="490" width="120" height="114" as="geometry" />
        </mxCell>
        <mxCell id="WFpbNeZ7fb5WtR8EpIsN-42" value="&lt;font style=&quot;font-size: 16px;&quot; color=&quot;#994C00&quot;&gt;Prod&lt;/font&gt;" style="text;html=1;strokeColor=none;fillColor=none;align=center;verticalAlign=middle;whiteSpace=wrap;rounded=0;fontStyle=1" parent="1" vertex="1">
          <mxGeometry x="475" y="607.6" width="128.5" height="30" as="geometry" />
        </mxCell>
        <mxCell id="WFpbNeZ7fb5WtR8EpIsN-43" value="" style="sketch=0;outlineConnect=0;fontColor=#232F3E;gradientColor=none;fillColor=#D45B07;strokeColor=none;dashed=0;verticalLabelPosition=bottom;verticalAlign=top;align=center;html=1;fontSize=12;fontStyle=0;aspect=fixed;pointerEvents=1;shape=mxgraph.aws4.auto_scaling2;" parent="1" vertex="1">
          <mxGeometry x="507.25" y="521" width="48" height="48" as="geometry" />
        </mxCell>
        <mxCell id="WFpbNeZ7fb5WtR8EpIsN-44" value="" style="rounded=0;whiteSpace=wrap;html=1;" parent="1" vertex="1">
          <mxGeometry x="297" y="490" width="120" height="114" as="geometry" />
        </mxCell>
        <mxCell id="WFpbNeZ7fb5WtR8EpIsN-45" value="" style="shape=image;html=1;verticalAlign=top;verticalLabelPosition=bottom;labelBackgroundColor=#ffffff;imageAspect=0;aspect=fixed;image=https://cdn0.iconfinder.com/data/icons/communication-technology/500/code_brackets-128.png;fontSize=16;" parent="1" vertex="1">
          <mxGeometry x="324" y="590" width="66" height="66" as="geometry" />
        </mxCell>
        <mxCell id="WFpbNeZ7fb5WtR8EpIsN-46" value="&lt;font style=&quot;font-size: 16px;&quot; color=&quot;#FF3399&quot;&gt;Dev&lt;/font&gt;" style="text;html=1;strokeColor=none;fillColor=none;align=center;verticalAlign=middle;whiteSpace=wrap;rounded=0;fontStyle=1" parent="1" vertex="1">
          <mxGeometry x="335" y="608" width="113" height="30" as="geometry" />
        </mxCell>
        <mxCell id="WFpbNeZ7fb5WtR8EpIsN-48" value="" style="sketch=0;outlineConnect=0;fontColor=#232F3E;gradientColor=none;fillColor=#D45B07;strokeColor=none;dashed=0;verticalLabelPosition=bottom;verticalAlign=top;align=center;html=1;fontSize=12;fontStyle=0;aspect=fixed;pointerEvents=1;shape=mxgraph.aws4.auto_scaling2;" parent="1" vertex="1">
          <mxGeometry x="328" y="523" width="48" height="48" as="geometry" />
        </mxCell>
        <mxCell id="WFpbNeZ7fb5WtR8EpIsN-79" style="edgeStyle=orthogonalEdgeStyle;rounded=0;orthogonalLoop=1;jettySize=auto;html=1;fontSize=17;fontColor=#990099;fillColor=#0050ef;strokeColor=#001DBC;" parent="1" source="WFpbNeZ7fb5WtR8EpIsN-49" edge="1">
          <mxGeometry relative="1" as="geometry">
            <mxPoint x="319.8461538461538" y="612.3846153846152" as="targetPoint" />
          </mxGeometry>
        </mxCell>
        <mxCell id="WFpbNeZ7fb5WtR8EpIsN-49" value="&lt;b&gt;&lt;font style=&quot;font-size: 17px;&quot; color=&quot;#3333FF&quot;&gt;On-Premise&lt;/font&gt;&lt;/b&gt;" style="sketch=0;outlineConnect=0;gradientColor=none;html=1;whiteSpace=wrap;fontSize=12;fontStyle=0;shape=mxgraph.aws4.group;grIcon=mxgraph.aws4.group_on_premise;strokeColor=#858B94;fillColor=none;verticalAlign=top;align=left;spacingLeft=30;fontColor=#858B94;dashed=0;" parent="1" vertex="1">
          <mxGeometry x="377.25" y="708" width="130" height="130" as="geometry" />
        </mxCell>
        <mxCell id="WFpbNeZ7fb5WtR8EpIsN-50" value="" style="endArrow=classic;html=1;rounded=0;fontSize=15;fontColor=#3333FF;fillColor=#e51400;strokeColor=#B20000;" parent="1" edge="1">
          <mxGeometry width="50" height="50" relative="1" as="geometry">
            <mxPoint x="298" y="180" as="sourcePoint" />
            <mxPoint x="387" y="93" as="targetPoint" />
          </mxGeometry>
        </mxCell>
        <mxCell id="WFpbNeZ7fb5WtR8EpIsN-51" value="" style="endArrow=classic;html=1;rounded=0;fontSize=15;fontColor=#3333FF;entryX=1.014;entryY=0.615;entryDx=0;entryDy=0;entryPerimeter=0;exitX=0;exitY=1;exitDx=0;exitDy=0;fillColor=#e51400;strokeColor=#B20000;" parent="1" source="WFpbNeZ7fb5WtR8EpIsN-24" target="WFpbNeZ7fb5WtR8EpIsN-16" edge="1">
          <mxGeometry width="50" height="50" relative="1" as="geometry">
            <mxPoint x="429" y="488" as="sourcePoint" />
            <mxPoint x="479" y="438" as="targetPoint" />
          </mxGeometry>
        </mxCell>
        <mxCell id="WFpbNeZ7fb5WtR8EpIsN-74" style="edgeStyle=orthogonalEdgeStyle;rounded=0;orthogonalLoop=1;jettySize=auto;html=1;exitX=1;exitY=0.5;exitDx=0;exitDy=0;exitPerimeter=0;fontSize=25;fontColor=#3333FF;fillColor=#0050ef;strokeColor=#001DBC;" parent="1" source="WFpbNeZ7fb5WtR8EpIsN-54" edge="1">
          <mxGeometry relative="1" as="geometry">
            <mxPoint x="556.7692307692305" y="221.61538461538453" as="targetPoint" />
          </mxGeometry>
        </mxCell>
        <mxCell id="WFpbNeZ7fb5WtR8EpIsN-75" style="edgeStyle=orthogonalEdgeStyle;rounded=0;orthogonalLoop=1;jettySize=auto;html=1;exitX=0;exitY=0.5;exitDx=0;exitDy=0;exitPerimeter=0;fontSize=25;fontColor=#3333FF;fillColor=#0050ef;strokeColor=#001DBC;" parent="1" source="WFpbNeZ7fb5WtR8EpIsN-54" edge="1">
          <mxGeometry relative="1" as="geometry">
            <mxPoint x="299.8461538461538" y="221.61538461538453" as="targetPoint" />
          </mxGeometry>
        </mxCell>
        <mxCell id="WFpbNeZ7fb5WtR8EpIsN-54" value="" style="outlineConnect=0;dashed=0;verticalLabelPosition=bottom;verticalAlign=top;align=center;html=1;shape=mxgraph.aws3.router;fillColor=#F58536;gradientColor=none;fontSize=15;fontColor=#3333FF;" parent="1" vertex="1">
          <mxGeometry x="399" y="186" width="69" height="72" as="geometry" />
        </mxCell>
        <mxCell id="WFpbNeZ7fb5WtR8EpIsN-59" style="edgeStyle=orthogonalEdgeStyle;rounded=0;orthogonalLoop=1;jettySize=auto;html=1;fontSize=15;fontColor=#3333FF;fillColor=#0050ef;strokeColor=#001DBC;" parent="1" source="WFpbNeZ7fb5WtR8EpIsN-58" edge="1">
          <mxGeometry relative="1" as="geometry">
            <mxPoint x="385.5" y="483.2352941176471" as="targetPoint" />
          </mxGeometry>
        </mxCell>
        <mxCell id="WFpbNeZ7fb5WtR8EpIsN-60" style="edgeStyle=orthogonalEdgeStyle;rounded=0;orthogonalLoop=1;jettySize=auto;html=1;fontSize=15;fontColor=#3333FF;fillColor=#0050ef;strokeColor=#001DBC;" parent="1" source="WFpbNeZ7fb5WtR8EpIsN-58" edge="1">
          <mxGeometry relative="1" as="geometry">
            <mxPoint x="558.4705882352941" y="344.4999999999998" as="targetPoint" />
          </mxGeometry>
        </mxCell>
        <mxCell id="WFpbNeZ7fb5WtR8EpIsN-58" value="" style="outlineConnect=0;dashed=0;verticalLabelPosition=bottom;verticalAlign=top;align=center;html=1;shape=mxgraph.aws3.router;fillColor=#F58536;gradientColor=none;fontSize=15;fontColor=#3333FF;" parent="1" vertex="1">
          <mxGeometry x="372" y="331" width="27" height="27" as="geometry" />
        </mxCell>
        <mxCell id="WFpbNeZ7fb5WtR8EpIsN-62" style="edgeStyle=orthogonalEdgeStyle;rounded=0;orthogonalLoop=1;jettySize=auto;html=1;fontSize=15;fontColor=#3333FF;fillColor=#0050ef;strokeColor=#001DBC;" parent="1" source="WFpbNeZ7fb5WtR8EpIsN-61" edge="1">
          <mxGeometry relative="1" as="geometry">
            <mxPoint x="500.25" y="484.41176470588243" as="targetPoint" />
          </mxGeometry>
        </mxCell>
        <mxCell id="WFpbNeZ7fb5WtR8EpIsN-63" style="edgeStyle=orthogonalEdgeStyle;rounded=0;orthogonalLoop=1;jettySize=auto;html=1;exitX=1;exitY=0.5;exitDx=0;exitDy=0;exitPerimeter=0;fontSize=15;fontColor=#3333FF;fillColor=#0050ef;strokeColor=#001DBC;" parent="1" source="WFpbNeZ7fb5WtR8EpIsN-61" edge="1">
          <mxGeometry relative="1" as="geometry">
            <mxPoint x="559.6470588235293" y="367.9411764705883" as="targetPoint" />
          </mxGeometry>
        </mxCell>
        <mxCell id="WFpbNeZ7fb5WtR8EpIsN-61" value="" style="outlineConnect=0;dashed=0;verticalLabelPosition=bottom;verticalAlign=top;align=center;html=1;shape=mxgraph.aws3.router;fillColor=#F58536;gradientColor=none;fontSize=15;fontColor=#3333FF;" parent="1" vertex="1">
          <mxGeometry x="486.75" y="354" width="27" height="27" as="geometry" />
        </mxCell>
        <mxCell id="WFpbNeZ7fb5WtR8EpIsN-66" style="edgeStyle=orthogonalEdgeStyle;rounded=0;orthogonalLoop=1;jettySize=auto;html=1;entryX=1;entryY=0.5;entryDx=0;entryDy=0;entryPerimeter=0;fontSize=15;fontColor=#3333FF;fillColor=#0050ef;strokeColor=#001DBC;" parent="1" source="WFpbNeZ7fb5WtR8EpIsN-64" target="WFpbNeZ7fb5WtR8EpIsN-65" edge="1">
          <mxGeometry relative="1" as="geometry">
            <Array as="points">
              <mxPoint x="669" y="773" />
            </Array>
          </mxGeometry>
        </mxCell>
        <mxCell id="WFpbNeZ7fb5WtR8EpIsN-64" value="AWS Direct Connect" style="sketch=0;outlineConnect=0;fontColor=#232F3E;gradientColor=none;strokeColor=#ffffff;fillColor=#232F3E;dashed=0;verticalLabelPosition=middle;verticalAlign=bottom;align=center;html=1;whiteSpace=wrap;fontSize=10;fontStyle=1;spacing=3;shape=mxgraph.aws4.productIcon;prIcon=mxgraph.aws4.direct_connect;" parent="1" vertex="1">
          <mxGeometry x="643.5" y="370" width="51" height="95.5" as="geometry" />
        </mxCell>
        <mxCell id="WFpbNeZ7fb5WtR8EpIsN-65" value="" style="outlineConnect=0;dashed=0;verticalLabelPosition=bottom;verticalAlign=top;align=center;html=1;shape=mxgraph.aws3.router;fillColor=#F58536;gradientColor=none;fontSize=15;fontColor=#3333FF;" parent="1" vertex="1">
          <mxGeometry x="494" y="759.5" width="27" height="27" as="geometry" />
        </mxCell>
        <mxCell id="WFpbNeZ7fb5WtR8EpIsN-67" value="" style="image;html=1;image=img/lib/clip_art/computers/Database_128x128.png;fontSize=15;fontColor=#3333FF;" parent="1" vertex="1">
          <mxGeometry x="386" y="757" width="33.25" height="44" as="geometry" />
        </mxCell>
        <mxCell id="WFpbNeZ7fb5WtR8EpIsN-68" value="" style="image;html=1;image=img/lib/clip_art/computers/Server_128x128.png;fontSize=15;fontColor=#3333FF;" parent="1" vertex="1">
          <mxGeometry x="432" y="777" width="65" height="71" as="geometry" />
        </mxCell>
        <mxCell id="WFpbNeZ7fb5WtR8EpIsN-69" value="Text" style="text;html=1;strokeColor=none;fillColor=none;align=center;verticalAlign=middle;whiteSpace=wrap;rounded=0;fontSize=15;fontColor=#3333FF;" parent="1" vertex="1">
          <mxGeometry x="212.15" y="1207.77" width="60" height="30" as="geometry" />
        </mxCell>
        <mxCell id="WFpbNeZ7fb5WtR8EpIsN-70" value="&lt;font style=&quot;font-size: 25px;&quot;&gt;AWS Multi Account Architecture&lt;/font&gt;" style="text;html=1;strokeColor=#B20000;fillColor=#e51400;align=center;verticalAlign=middle;whiteSpace=wrap;rounded=0;fontSize=15;fontColor=#ffffff;" parent="1" vertex="1">
          <mxGeometry x="237" y="860" width="423" height="30" as="geometry" />
        </mxCell>
        <mxCell id="WFpbNeZ7fb5WtR8EpIsN-73" value="&lt;font color=&quot;#990099&quot;&gt;&lt;b&gt;VPC Peering&lt;/b&gt;&lt;/font&gt;" style="text;html=1;strokeColor=none;fillColor=none;align=center;verticalAlign=middle;whiteSpace=wrap;rounded=0;fontSize=25;fontColor=#3333FF;" parent="1" vertex="1">
          <mxGeometry x="355" y="260" width="168.87" height="27" as="geometry" />
        </mxCell>
        <mxCell id="WFpbNeZ7fb5WtR8EpIsN-76" value="" style="endArrow=classic;html=1;rounded=0;fontSize=25;fontColor=#009900;exitX=-0.002;exitY=0.628;exitDx=0;exitDy=0;exitPerimeter=0;fillColor=#e51400;strokeColor=#B20000;" parent="1" source="WFpbNeZ7fb5WtR8EpIsN-44" edge="1">
          <mxGeometry width="50" height="50" relative="1" as="geometry">
            <mxPoint x="482" y="619" as="sourcePoint" />
            <mxPoint x="383" y="82" as="targetPoint" />
            <Array as="points">
              <mxPoint x="41" y="565" />
              <mxPoint x="41" y="82" />
            </Array>
          </mxGeometry>
        </mxCell>
        <mxCell id="WFpbNeZ7fb5WtR8EpIsN-77" value="" style="endArrow=classic;html=1;rounded=0;fontSize=25;fontColor=#009900;fillColor=#e51400;strokeColor=#B20000;" parent="1" edge="1">
          <mxGeometry width="50" height="50" relative="1" as="geometry">
            <mxPoint x="593" y="563" as="sourcePoint" />
            <mxPoint x="471" y="80" as="targetPoint" />
            <Array as="points">
              <mxPoint x="810" y="563" />
              <mxPoint x="810" y="80" />
            </Array>
          </mxGeometry>
        </mxCell>
      </root>
    </mxGraphModel>
  </diagram>
</mxfile>
